<svg width="244" height="48" viewBox="0 0 244 48" fill="none" xmlns="http://www.w3.org/2000/svg">
<path d="M39.2158 15.9397H39.8953L42.8244 22.335H42.0439L41.291 20.6573H37.7926L37.0305 22.335H36.2959L39.2158 15.9397ZM41.0063 20.0134L39.5464 16.774L38.0772 20.0134H41.0063Z" fill="white"/>
<path d="M44.1367 15.9849H44.8621V21.6728H48.4817V22.3348H44.1367V15.9849Z" fill="white"/>
<path d="M50.6476 16.6469H48.4824V15.9849H53.5326V16.6469H51.3821V22.3348H50.6476V16.6469Z" fill="white"/>
<path d="M55.0088 15.9849H55.7342V22.333H55.0088V15.9849Z" fill="white"/>
<path d="M57.5605 19.6777V15.9849H58.2859V19.6323C58.2859 21.0017 59.0205 21.7726 60.2509 21.7726C61.4354 21.7726 62.1883 21.0652 62.1883 19.6777V15.9849H62.9137V19.6233C62.9137 21.4733 61.8394 22.4346 60.2325 22.4346C58.6257 22.4346 57.5605 21.4733 57.5605 19.6777Z" fill="white"/>
<path d="M64.6773 15.9849H65.4118L67.7533 19.451L70.0947 15.9849H70.8293V22.333H70.1039V17.191L67.7643 20.5936H67.7276L65.3769 17.2001V22.3348H64.6699L64.6773 15.9849Z" fill="white"/>
<path d="M36.4975 25.0542H38.9766C41.2722 25.0542 42.6036 26.3601 42.6036 28.192V28.2101C42.6036 30.0438 41.2538 31.4042 38.9307 31.4042H36.4883L36.4975 25.0542ZM39.0042 29.8425C40.0693 29.8425 40.7763 29.2621 40.7763 28.2373V28.2192C40.7763 27.2035 40.0693 26.614 39.0042 26.614H38.2788V29.8425H39.0042Z" fill="white"/>
<path d="M43.5674 25.0542H48.7369V26.5505H45.3303V27.5118H48.4155V28.8994H45.3303V29.906H48.7828V31.4042H43.5674V25.0542Z" fill="white"/>
<path d="M49.251 30.461L50.2426 29.2911C50.8276 29.775 51.564 30.0441 52.327 30.0529C52.8045 30.0529 53.0616 29.8878 53.0616 29.6157V29.5994C53.0616 29.3364 52.8504 29.1895 51.9781 28.99C50.6099 28.6817 49.554 28.3008 49.554 26.9949V26.9767C49.554 25.7978 50.4998 24.9453 52.0424 24.9453C53.135 24.9453 53.989 25.2355 54.6868 25.7887L53.7961 27.0257C53.2739 26.6425 52.6465 26.4244 51.9964 26.3999C51.5649 26.3999 51.3537 26.5813 51.3537 26.808V26.8262C51.3537 27.1164 51.5741 27.2433 52.4647 27.4429C53.9431 27.7603 54.8613 28.2318 54.8613 29.4217V29.438C54.8613 30.7366 53.8237 31.5075 52.2627 31.5075C51.1629 31.5348 50.0912 31.1624 49.251 30.461Z" fill="white"/>
<path d="M55.8076 25.0542H57.5982V31.4024H55.8076V25.0542Z" fill="white"/>
<path d="M58.5986 28.2456V28.2275C58.5986 26.3774 60.0678 24.9264 62.0603 24.9264C63.0173 24.8945 63.9503 25.2255 64.668 25.8514L63.6213 27.0939C63.1996 26.7072 62.6449 26.4932 62.0695 26.4953C61.1421 26.4953 60.4259 27.2662 60.4259 28.2365V28.2547C60.4259 29.2794 61.1513 30.0158 62.1705 30.0158C62.5324 30.0317 62.8908 29.9394 63.1989 29.751V28.9802H61.9317V27.6924H64.8884V30.5509C64.1028 31.1902 63.1149 31.5369 62.097 31.5303C60.0953 31.5303 58.5986 30.1682 58.5986 28.2456Z" fill="white"/>
<path d="M65.9277 25.0542H67.5805L70.225 28.4097V25.0542H71.9879V31.4024H70.427L67.6723 27.9181V31.4024H65.9277V25.0542Z" fill="white"/>
<path d="M73.1797 25.0542H78.3492V26.5505H74.9427V27.5118H78.0279V28.8994H74.9427V29.906H78.3951V31.4042H73.1797V25.0542Z" fill="white"/>
<path d="M79.3506 25.0542H82.3899C83.3724 25.0542 84.0518 25.3081 84.4834 25.7434C84.6766 25.9375 84.827 26.1691 84.925 26.4236C85.023 26.678 85.0665 26.9498 85.0527 27.2216V27.2398C85.0672 27.6607 84.9473 28.0754 84.71 28.4253C84.4727 28.7752 84.13 29.0426 83.7305 29.1896L85.2639 31.4042H83.2071L81.9216 29.4798H81.1411V31.4042H79.3598L79.3506 25.0542ZM82.3072 28.1013C82.9132 28.1013 83.2622 27.8111 83.2622 27.3486V27.3305C83.2622 26.8317 82.8949 26.5778 82.298 26.5778H81.1319V28.1013H82.3072Z" fill="white"/>
<path fill-rule="evenodd" clip-rule="evenodd" d="M7.40449 32.1653V40.6899L2.02926 43.7117C1.82905 43.8208 1.60417 43.8782 1.37549 43.8785C1.0195 43.8765 0.677977 43.7391 0.421841 43.4949C0.165706 43.2507 0.0146379 42.9185 7.329e-06 42.5672V37.2928V37.1368C-0.00084283 36.8778 0.0722865 36.6239 0.210995 36.4041C0.349704 36.1843 0.548366 36.0076 0.784162 35.8944L7.40449 32.1653Z" fill="url(#paint0_linear_1554_735)"/>
<path fill-rule="evenodd" clip-rule="evenodd" d="M2.00725 4.21165C2.03296 4.22434 7.40451 7.28234 7.40451 7.28234V15.0543C7.4035 15.116 7.38598 15.1764 7.35372 15.2292C7.32147 15.2821 7.27564 15.3256 7.22087 15.3554L0.530759 19.2259C0.476516 19.2567 0.415009 19.2727 0.352479 19.2723C0.28995 19.272 0.228624 19.2553 0.174727 19.224C0.12083 19.1927 0.0762799 19.1478 0.0455983 19.094C0.0149167 19.0402 -0.000804012 18.9793 3.16607e-05 18.9176V5.39966C0.00529075 5.04357 0.151351 4.70364 0.407001 4.4525C0.66265 4.20137 1.00761 4.05894 1.36817 4.05566C1.53589 4.05563 1.70216 4.08638 1.8585 4.14635L2.00725 4.21165Z" fill="url(#paint1_linear_1554_735)"/>
<path fill-rule="evenodd" clip-rule="evenodd" d="M1.45992e-09 37.1442V28.9823C-1.2606e-05 28.6763 0.0816309 28.3757 0.236706 28.1107C0.39178 27.8458 0.614809 27.6259 0.883322 27.4732L14.2323 19.8845C14.2858 19.8544 14.3464 19.8387 14.408 19.8389C14.4696 19.8391 14.53 19.8552 14.5833 19.8857C14.6366 19.9161 14.6809 19.9598 14.7118 20.0124C14.7427 20.0651 14.7591 20.1247 14.7594 20.1856V27.8269C14.7586 27.8887 14.7411 27.9491 14.7088 28.002C14.6766 28.0549 14.6306 28.0984 14.5757 28.128L0.782319 35.9127C0.548548 36.0254 0.351383 36.2005 0.213128 36.4181C0.074873 36.6358 0.00104635 36.8873 1.45992e-09 37.1442H1.45992e-09Z" fill="url(#paint2_linear_1554_735)"/>
<path fill-rule="evenodd" clip-rule="evenodd" d="M2.04815 43.692L21.3307 32.7405C21.5993 32.588 21.8224 32.3681 21.9775 32.1032C22.1326 31.8382 22.2142 31.5375 22.214 31.2315V16.7033C22.214 16.3973 22.1323 16.0967 21.9773 15.8317C21.8222 15.5668 21.5992 15.3469 21.3307 15.1942L2.04815 4.23914C1.84071 4.12002 1.60496 4.05743 1.365 4.05776C1.18942 4.07173 1.01617 4.10644 0.848964 4.16115L7.75944 0.232549C8.02661 0.0802033 8.32968 0 8.63818 0C8.94667 0 9.24974 0.0802033 9.51691 0.232549L28.6488 11.1024C28.9173 11.2551 29.1404 11.475 29.2954 11.7399C29.4505 12.0048 29.5322 12.3054 29.5321 12.6114V35.4974C29.5314 35.8026 29.4493 36.1021 29.2943 36.366C29.1393 36.63 28.9166 36.849 28.6488 37.001L9.673 47.7693C9.40609 47.9205 9.10378 48 8.79611 48C8.48844 48 8.18612 47.9205 7.91921 47.7693L0.777344 43.7373C0.976807 43.8329 1.19693 43.8787 1.41846 43.8708C1.63999 43.8629 1.85619 43.8015 2.04815 43.692Z" fill="url(#paint3_linear_1554_735)"/>
<path fill-rule="evenodd" clip-rule="evenodd" d="M170.768 40.9332C170.768 40.9332 175.558 38.1561 177.385 37.0971C177.816 36.8472 178.081 36.3862 178.081 35.887C178.082 33.6277 178.039 27.4041 178.039 27.4041L162.647 36.3069L170.768 40.9332Z" fill="url(#paint4_linear_1554_735)"/>
<path fill-rule="evenodd" clip-rule="evenodd" d="M138 28.1357C138 28.1357 138 33.7105 138 35.8328C138 36.332 138.265 36.7939 138.696 37.0438C140.646 38.175 146.023 41.2477 146.023 41.2477V23.3953L138 28.1357Z" fill="url(#paint5_linear_1554_735)"/>
<path fill-rule="evenodd" clip-rule="evenodd" d="M165.417 5.97008C165.417 5.97008 160.653 3.23115 158.833 2.18518C158.403 1.93767 157.875 1.9386 157.445 2.18798C155.497 3.31739 150.115 6.48467 150.115 6.48467L165.489 15.3018L165.417 5.97008Z" fill="url(#paint6_linear_1554_735)"/>
<path fill-rule="evenodd" clip-rule="evenodd" d="M158.14 11.0656V14.6976C158.14 15.8512 157.529 16.9182 156.535 17.4976L139.444 27.4651C138.611 27.9271 138.037 28.8033 138 29.8162C138 29.8162 138 18.1809 138 14.5386C138 13.8726 138.354 13.2573 138.928 12.924C142.469 10.8712 157.446 2.18738 157.446 2.18738C157.661 2.06293 157.9 2.00047 158.14 2V2.76397V11.0656Z" fill="url(#paint7_linear_1554_735)"/>
<path fill-rule="evenodd" clip-rule="evenodd" d="M149.108 30.1246C150.103 29.5447 151.33 29.5419 152.328 30.1176L169.427 39.9844C169.859 40.259 170.369 40.4174 170.917 40.4174C171.444 40.4174 171.938 40.2702 172.359 40.0138H172.36C172.36 40.0138 162.199 45.9139 159.037 47.75C158.463 48.0833 157.756 48.0833 157.181 47.75C153.757 45.7629 138.662 37.0012 138.662 37.0012C138.454 36.8768 138.287 36.7029 138.17 36.4997L140.118 35.3647C140.118 35.3647 141.447 34.5895 142.207 34.1472L149.108 30.1246Z" fill="url(#paint8_linear_1554_735)"/>
<path fill-rule="evenodd" clip-rule="evenodd" d="M178.088 34.6367L178.086 35.8797C178.086 36.1284 178.02 36.3678 177.901 36.5759L170.081 32.0198C168.968 31.371 167.847 30.7186 166.884 30.1569C165.893 29.5794 165.281 28.5176 165.279 27.3678L165.228 7.53275C165.228 7.51835 165.228 7.5039 165.228 7.48945C165.228 6.44439 164.656 5.53205 163.81 5.05049L163.809 5.04956C163.809 5.04956 174 10.9749 177.164 12.8145C177.738 13.1475 178.091 13.7622 178.091 14.4268L178.088 34.6367Z" fill="url(#paint9_linear_1554_735)"/>
<path d="M190.334 20.4077H191.041L194.089 27.1715H193.277L192.493 25.3966H188.854L188.061 27.1715H187.287L190.334 20.4077ZM192.197 24.7154L190.678 21.2904L189.15 24.7154H192.197Z" fill="white"/>
<path d="M195.307 20.4558H196.061V26.4712H199.825V27.1716H195.307V20.4558Z" fill="white"/>
<path d="M201.798 21.1562H199.553V20.4558H204.807V21.1562H202.562V27.1716H201.798V21.1562Z" fill="white"/>
<path d="M206.188 20.4558H206.942V27.1716H206.188V20.4558Z" fill="white"/>
<path d="M208.729 24.3606V20.4558H209.484V24.3126C209.484 25.7613 210.248 26.5768 211.528 26.5768C212.761 26.5768 213.544 25.8285 213.544 24.3606V20.4558H214.299V24.303C214.299 26.2602 213.181 27.2771 211.509 27.2771C209.857 27.2771 208.729 26.2602 208.729 24.3606Z" fill="white"/>
<path d="M215.984 20.4558H216.749L219.185 24.1207L221.621 20.4558H222.385V27.1716H221.63V21.7318L219.194 25.3296H219.156L216.72 21.7414V27.1716H215.984V20.4558Z" fill="white"/>
<path d="M226.188 26.0093L227.33 24.8634C227.797 25.3424 228.293 25.6148 228.891 25.6148C229.406 25.6148 229.733 25.3518 229.733 24.9479V24.9291C229.733 24.5065 229.35 24.2528 228.667 24.2528H227.9L227.638 23.3042L229.144 21.9422H226.637V20.4675H231.37V21.7731L229.808 23.1163C230.743 23.3229 231.501 23.8489 231.501 24.9667V24.9855C231.501 26.3192 230.435 27.174 228.976 27.174C227.713 27.174 226.824 26.7138 226.188 26.0093Z" fill="white"/>
<path d="M233.016 26.4225C232.53 25.934 232.212 25.192 232.212 23.9616V23.9428C232.212 21.8951 233.203 20.3359 235.252 20.3359C236.168 20.3359 236.804 20.5895 237.431 21.0592L236.58 22.346C236.177 22.0454 235.803 21.8482 235.28 21.8482C234.513 21.8482 234.129 22.4211 234.045 23.2477C234.391 22.9847 234.812 22.7405 235.457 22.7405C236.608 22.7405 237.618 23.4731 237.618 24.7881V24.8069C237.618 26.2816 236.449 27.1739 235.018 27.1739C234.092 27.1739 233.484 26.8921 233.016 26.4225ZM235.85 24.9102V24.8914C235.85 24.4218 235.495 24.0461 234.924 24.0461C234.354 24.0461 234.017 24.4124 234.017 24.882V24.9008C234.017 25.3799 234.372 25.7556 234.943 25.7556C235.513 25.7556 235.85 25.3893 235.85 24.9102Z" fill="white"/>
<path d="M238.197 26.1314L239.235 24.9103C239.768 25.3612 240.274 25.6242 240.825 25.6242C241.424 25.6242 241.789 25.3236 241.789 24.854V24.8352C241.789 24.3656 241.396 24.0744 240.825 24.0744C240.423 24.0744 240.086 24.2152 239.778 24.4031L238.702 23.802L238.889 20.4675H243.266V21.9704H240.32L240.264 22.966C240.563 22.8251 240.872 22.7312 241.312 22.7312C242.49 22.7312 243.556 23.3887 243.556 24.8164V24.8352C243.556 26.3005 242.443 27.174 240.853 27.174C239.694 27.174 238.88 26.7701 238.197 26.1314Z" fill="white"/>
<defs>
<linearGradient id="paint0_linear_1554_735" x1="6.01798" y1="41.4771" x2="2.32841" y2="35.0095" gradientUnits="userSpaceOnUse">
<stop stop-color="#D9C185"/>
<stop offset="1" stop-color="#8E783E"/>
</linearGradient>
<linearGradient id="paint1_linear_1554_735" x1="-0.453566" y1="18.9303" x2="5.57034" y2="5.852" gradientUnits="userSpaceOnUse">
<stop offset="0.18" stop-color="#D9C185"/>
<stop offset="1" stop-color="#907C44"/>
</linearGradient>
<linearGradient id="paint2_linear_1554_735" x1="1.05411" y1="37.8207" x2="13.1497" y2="18.9637" gradientUnits="userSpaceOnUse">
<stop stop-color="#D9C185"/>
<stop offset="0.28" stop-color="#C8B176"/>
<stop offset="1" stop-color="#9F8951"/>
</linearGradient>
<linearGradient id="paint3_linear_1554_735" x1="15.1511" y1="0.000387579" x2="15.1511" y2="48.0015" gradientUnits="userSpaceOnUse">
<stop stop-color="#D9C185"/>
<stop offset="0.23" stop-color="#CEB67A"/>
<stop offset="0.62" stop-color="#B0995E"/>
<stop offset="1" stop-color="#8E783E"/>
</linearGradient>
<linearGradient id="paint4_linear_1554_735" x1="175.171" y1="33.9934" x2="166.815" y2="35.8846" gradientUnits="userSpaceOnUse">
<stop stop-color="#003E70"/>
<stop offset="1" stop-color="#117BBE"/>
</linearGradient>
<linearGradient id="paint5_linear_1554_735" x1="139.438" y1="28.2244" x2="146.431" y2="32.9649" gradientUnits="userSpaceOnUse">
<stop stop-color="#003E70"/>
<stop offset="1" stop-color="#117BBE"/>
</linearGradient>
<linearGradient id="paint6_linear_1554_735" x1="155.214" y1="7.25151" x2="165.777" y2="9.44791" gradientUnits="userSpaceOnUse">
<stop stop-color="#117BBE"/>
<stop offset="1" stop-color="#003D70"/>
</linearGradient>
<linearGradient id="paint7_linear_1554_735" x1="155.097" y1="18.6557" x2="139.46" y2="12.5936" gradientUnits="userSpaceOnUse">
<stop stop-color="#00C0DD"/>
<stop offset="1" stop-color="#2460B0"/>
</linearGradient>
<linearGradient id="paint8_linear_1554_735" x1="156.971" y1="34.2447" x2="152.813" y2="43.9412" gradientUnits="userSpaceOnUse">
<stop stop-color="#00C0DD"/>
<stop offset="1" stop-color="#0954A7"/>
</linearGradient>
<linearGradient id="paint9_linear_1554_735" x1="178.022" y1="15.7585" x2="165.09" y2="24.7998" gradientUnits="userSpaceOnUse">
<stop stop-color="#2460B0"/>
<stop offset="1" stop-color="#00C0DD"/>
</linearGradient>
</defs>
</svg>
